<svg xmlns="http://www.w3.org/2000/svg">
	<defs>
		<symbol id="fa-plus" viewBox="0 0 512 512">
			<path fill="currentColor" d="M384 250v12c0 6.6-5.4 12-12 12h-98v98c0 6.6-5.4 12-12 12h-12c-6.6 0-12-5.4-12-12v-98h-98c-6.6 0-12-5.4-12-12v-12c0-6.6 5.4-12 12-12h98v-98c0-6.6 5.4-12 12-12h12c6.6 0 12 5.4 12 12v98h98c6.6 0 12 5.4 12 12zm120 6c0 137-111 248-248 248S8 393 8 256 119 8 256 8s248 111 248 248zm-32 0c0-119.9-97.3-216-216-216-119.9 0-216 97.3-216 216 0 119.9 97.3 216 216 216 119.9 0 216-97.3 216-216z" />
		</symbol>
		<symbol id="fa-support" viewBox="0 0 512 512">
			<path fill="currentColor" d="M256 340c-15.464 0-28 12.536-28 28s12.536 28 28 28 28-12.536 28-28-12.536-28-28-28zm7.67-24h-16c-6.627 0-12-5.373-12-12v-.381c0-70.343 77.44-63.619 77.44-107.408 0-20.016-17.761-40.211-57.44-40.211-29.144 0-44.265 9.649-59.211 28.692-3.908 4.98-11.054 5.995-16.248 2.376l-13.134-9.15c-5.625-3.919-6.86-11.771-2.645-17.177C185.658 133.514 210.842 116 255.67 116c52.32 0 97.44 29.751 97.44 80.211 0 67.414-77.44 63.849-77.44 107.408V304c0 6.627-5.373 12-12 12zM256 40c118.621 0 216 96.075 216 216 0 119.291-96.61 216-216 216-119.244 0-216-96.562-216-216 0-119.203 96.602-216 216-216m0-32C119.043 8 8 119.083 8 256c0 136.997 111.043 248 248 248s248-111.003 248-248C504 119.083 392.957 8 256 8z" />
		</symbol>
		<symbol id="fa-user" viewBox="0 0 496 512">
			<path fill="currentColor" d="M248 8C111 8 0 119 0 256s111 248 248 248 248-111 248-248S385 8 248 8zm128 421.6c-35.9 26.5-80.1 42.4-128 42.4s-92.1-15.9-128-42.4V416c0-35.3 28.7-64 64-64 11.1 0 27.5 11.4 64 11.4 36.6 0 52.8-11.4 64-11.4 35.3 0 64 28.7 64 64v13.6zm30.6-27.5c-6.8-46.4-46.3-82.1-94.6-82.1-20.5 0-30.4 11.4-64 11.4S204.6 320 184 320c-48.3 0-87.8 35.7-94.6 82.1C53.9 363.6 32 312.4 32 256c0-119.1 96.9-216 216-216s216 96.9 216 216c0 56.4-21.9 107.6-57.4 146.1zM248 120c-48.6 0-88 39.4-88 88s39.4 88 88 88 88-39.4 88-88-39.4-88-88-88zm0 144c-30.9 0-56-25.1-56-56s25.1-56 56-56 56 25.1 56 56-25.1 56-56 56z" />
		</symbol>
	</defs>
</svg>
